<svg width="32" height="32" viewBox="0 0 32 32" fill="none" xmlns="http://www.w3.org/2000/svg">
<path d="M18.0612 17.0612L8.0612 27.0612C7.92167 27.2008 7.75602 27.3115 7.57372 27.387C7.39141 27.4625 7.19602 27.5014 6.9987 27.5014C6.80137 27.5014 6.60598 27.4625 6.42367 27.387C6.24137 27.3115 6.07573 27.2008 5.9362 27.0612C5.79667 26.9217 5.68599 26.7561 5.61047 26.5738C5.53496 26.3915 5.49609 26.1961 5.49609 25.9987C5.49609 25.8014 5.53496 25.606 5.61047 25.4237C5.68599 25.2414 5.79667 25.0758 5.9362 24.9362L14.8749 16L5.9387 7.06125C5.6569 6.77946 5.49859 6.39726 5.49859 5.99875C5.49859 5.60023 5.6569 5.21804 5.9387 4.93625C6.22049 4.65446 6.60268 4.49615 7.0012 4.49615C7.39971 4.49615 7.7819 4.65446 8.0637 4.93625L18.0637 14.9362C18.2034 15.0758 18.3141 15.2415 18.3896 15.4239C18.4651 15.6063 18.5039 15.8018 18.5036 15.9993C18.5034 16.1967 18.4642 16.3921 18.3883 16.5744C18.3123 16.7566 18.2012 16.9221 18.0612 17.0612ZM28.0612 14.9362L18.0612 4.93625C17.9217 4.79672 17.756 4.68604 17.5737 4.61053C17.3914 4.53501 17.196 4.49615 16.9987 4.49615C16.8014 4.49615 16.606 4.53501 16.4237 4.61053C16.2414 4.68604 16.0757 4.79672 15.9362 4.93625C15.7967 5.07578 15.686 5.24142 15.6105 5.42373C15.535 5.60603 15.4961 5.80142 15.4961 5.99875C15.4961 6.19607 15.535 6.39147 15.6105 6.57377C15.686 6.75607 15.7967 6.92172 15.9362 7.06125L24.8749 16L15.9349 24.9387C15.6532 25.2205 15.4948 25.6027 15.4948 26.0012C15.4948 26.3998 15.6532 26.782 15.9349 27.0637C16.2167 27.3455 16.5989 27.5039 16.9974 27.5039C17.396 27.5039 17.7782 27.3455 18.0599 27.0637L28.0599 17.0637C28.1999 16.9245 28.3109 16.759 28.3867 16.5767C28.4625 16.3944 28.5016 16.1989 28.5018 16.0015C28.5019 15.8041 28.463 15.6086 28.3874 15.4262C28.3118 15.2438 28.201 15.0782 28.0612 14.9387V14.9362Z" fill="#2C3930"/>
</svg>
