<svg width="48" height="48" viewBox="0 0 48 48" fill="none" xmlns="http://www.w3.org/2000/svg">
<path d="M43.5 39C43.5 39.3978 43.342 39.7794 43.0607 40.0607C42.7794 40.342 42.3978 40.5 42 40.5H6C5.60218 40.5 5.22064 40.342 4.93934 40.0607C4.65804 39.7794 4.5 39.3978 4.5 39V9C4.5 8.60218 4.65804 8.22064 4.93934 7.93934C5.22064 7.65804 5.60218 7.5 6 7.5C6.39782 7.5 6.77936 7.65804 7.06066 7.93934C7.34196 8.22064 7.5 8.60218 7.5 9V26.6944L17.0119 18.375C17.2707 18.1484 17.5996 18.0177 17.9433 18.0047C18.2871 17.9917 18.6248 18.0973 18.9 18.3038L29.9269 26.5744L41.0119 16.875C41.1572 16.7311 41.3304 16.6185 41.5209 16.544C41.7114 16.4696 41.9151 16.4348 42.1194 16.4419C42.3238 16.4491 42.5246 16.4979 42.7094 16.5855C42.8942 16.6731 43.0592 16.7975 43.1941 16.9512C43.3291 17.1048 43.4312 17.2844 43.4942 17.479C43.5572 17.6736 43.5797 17.879 43.5604 18.0826C43.5412 18.2861 43.4804 18.4836 43.382 18.6629C43.2836 18.8422 43.1496 18.9994 42.9881 19.125L30.9881 29.625C30.7293 29.8516 30.4004 29.9823 30.0567 29.9953C29.7129 30.0083 29.3752 29.9027 29.1 29.6963L18.0731 21.4294L7.5 30.6806V37.5H42C42.3978 37.5 42.7794 37.658 43.0607 37.9393C43.342 38.2206 43.5 38.6022 43.5 39Z" fill="#2C3930"/>
</svg>
