<svg width="48" height="48" viewBox="0 0 48 48" fill="none" xmlns="http://www.w3.org/2000/svg">
<path d="M45.795 11.25C45.5791 11.1152 45.3324 11.0376 45.0781 11.0245C44.8239 11.0114 44.5706 11.0632 44.3419 11.175C36.2925 15.1125 30.5438 13.2675 24.4669 11.3213C18.0919 9.27938 11.4825 7.17 2.35125 11.6288C2.09612 11.7511 1.88081 11.9432 1.73018 12.1827C1.57955 12.4223 1.49976 12.6995 1.5 12.9825V35.4694C1.49996 35.7239 1.56469 35.9742 1.68807 36.1968C1.81146 36.4194 1.98945 36.6069 2.2053 36.7418C2.42115 36.8766 2.66776 36.9543 2.92192 36.9676C3.17608 36.9808 3.42943 36.9292 3.65813 36.8175C11.7075 32.88 17.4562 34.725 23.5425 36.6713C27.15 37.8244 30.825 39 34.98 39C38.1844 39 41.6794 38.3025 45.6506 36.3638C45.9029 36.2406 46.1155 36.0491 46.2643 35.8112C46.4131 35.5732 46.4922 35.2982 46.4925 35.0175V12.5306C46.4948 12.2755 46.4319 12.0239 46.3098 11.7999C46.1878 11.5758 46.0106 11.3865 45.795 11.25ZM43.5 34.0631C35.8875 37.47 30.3281 35.6925 24.4575 33.8156C20.85 32.6625 17.175 31.4869 13.02 31.4869C10.1008 31.5011 7.21133 32.0739 4.5075 33.1744V13.9369C12.12 10.53 17.6794 12.3075 23.55 14.1844C29.4206 16.0613 35.4637 18 43.5 14.8294V34.0631ZM24 18C22.8133 18 21.6533 18.3519 20.6666 19.0112C19.6799 19.6705 18.9108 20.6075 18.4567 21.7039C18.0026 22.8003 17.8838 24.0067 18.1153 25.1705C18.3468 26.3344 18.9182 27.4035 19.7574 28.2426C20.5965 29.0818 21.6656 29.6532 22.8295 29.8847C23.9933 30.1162 25.1997 29.9974 26.2961 29.5433C27.3925 29.0892 28.3295 28.3201 28.9888 27.3334C29.6481 26.3467 30 25.1867 30 24C30 22.4087 29.3679 20.8826 28.2426 19.7574C27.1174 18.6321 25.5913 18 24 18ZM24 27C23.4067 27 22.8266 26.8241 22.3333 26.4944C21.8399 26.1648 21.4554 25.6962 21.2284 25.1481C21.0013 24.5999 20.9419 23.9967 21.0576 23.4147C21.1734 22.8328 21.4591 22.2982 21.8787 21.8787C22.2982 21.4591 22.8328 21.1734 23.4147 21.0576C23.9967 20.9419 24.5999 21.0013 25.1481 21.2284C25.6962 21.4554 26.1648 21.8399 26.4944 22.3333C26.8241 22.8266 27 23.4067 27 24C27 24.7957 26.6839 25.5587 26.1213 26.1213C25.5587 26.6839 24.7956 27 24 27ZM10.5 18V27C10.5 27.3978 10.342 27.7794 10.0607 28.0607C9.77936 28.342 9.39783 28.5 9 28.5C8.60218 28.5 8.22065 28.342 7.93934 28.0607C7.65804 27.7794 7.5 27.3978 7.5 27V18C7.5 17.6022 7.65804 17.2206 7.93934 16.9393C8.22065 16.658 8.60218 16.5 9 16.5C9.39783 16.5 9.77936 16.658 10.0607 16.9393C10.342 17.2206 10.5 17.6022 10.5 18ZM37.5 30V21C37.5 20.6022 37.658 20.2206 37.9393 19.9393C38.2206 19.658 38.6022 19.5 39 19.5C39.3978 19.5 39.7794 19.658 40.0607 19.9393C40.342 20.2206 40.5 20.6022 40.5 21V30C40.5 30.3978 40.342 30.7794 40.0607 31.0607C39.7794 31.342 39.3978 31.5 39 31.5C38.6022 31.5 38.2206 31.342 37.9393 31.0607C37.658 30.7794 37.5 30.3978 37.5 30Z" fill="#2C3930"/>
</svg>
