<svg width="48" height="48" viewBox="0 0 48 48" fill="none" xmlns="http://www.w3.org/2000/svg">
<path d="M45.9001 28.2C45.7425 28.3182 45.5632 28.4042 45.3723 28.4531C45.1815 28.502 44.9829 28.5128 44.7879 28.4849C44.5929 28.4571 44.4053 28.3911 44.2358 28.2907C44.0663 28.1903 43.9183 28.0576 43.8001 27.9C42.896 26.6847 41.7192 25.6987 40.3644 25.0213C39.0096 24.344 37.5147 23.9941 36.0001 24C35.7051 24 35.4167 23.913 35.1709 23.7499C34.9251 23.5868 34.7329 23.3549 34.6182 23.0831C34.5403 22.8986 34.5002 22.7003 34.5002 22.5C34.5002 22.2997 34.5403 22.1014 34.6182 21.9169C34.7329 21.6451 34.9251 21.4132 35.1709 21.2501C35.4167 21.087 35.7051 21 36.0001 21C36.8417 20.9999 37.6665 20.7638 38.3806 20.3185C39.0948 19.8732 39.6698 19.2365 40.0403 18.4808C40.4107 17.7251 40.5619 16.8807 40.4765 16.0434C40.3911 15.2061 40.0725 14.4095 39.5571 13.7442C39.0417 13.0788 38.35 12.5714 37.5606 12.2794C36.7713 11.9875 35.9158 11.9227 35.0915 12.0926C34.2672 12.2624 33.507 12.6601 32.8974 13.2403C32.2877 13.8205 31.853 14.5601 31.6426 15.375C31.5933 15.5658 31.507 15.7451 31.3885 15.9025C31.2699 16.06 31.1216 16.1926 30.9518 16.2927C30.782 16.3928 30.5942 16.4585 30.3991 16.486C30.2039 16.5135 30.0053 16.5024 29.8145 16.4531C29.6236 16.4039 29.4444 16.3175 29.2869 16.199C29.1295 16.0805 28.9969 15.9321 28.8968 15.7623C28.7967 15.5926 28.731 15.4048 28.7034 15.2096C28.6759 15.0145 28.6871 14.8158 28.7363 14.625C29.0284 13.495 29.5801 12.4487 30.3477 11.5694C31.1152 10.6901 32.0774 10.0021 33.1577 9.56016C34.2379 9.11818 35.4064 8.93442 36.5702 9.02349C37.7339 9.11257 38.8608 9.47203 39.8612 10.0733C40.8616 10.6745 41.7079 11.5009 42.3327 12.4868C42.9575 13.4726 43.3435 14.5907 43.4602 15.752C43.5769 16.9133 43.4209 18.0859 43.0046 19.1763C42.5884 20.2667 41.9234 21.2449 41.0626 22.0331C43.1022 22.9162 44.8753 24.3176 46.2057 26.0981C46.3239 26.2561 46.4097 26.4359 46.4584 26.6271C46.507 26.8183 46.5174 27.0172 46.489 27.2125C46.4606 27.4077 46.394 27.5954 46.2929 27.7649C46.1918 27.9344 46.0584 28.0822 45.9001 28.2ZM35.7976 39.75C35.9061 39.9207 35.979 40.1116 36.0118 40.3113C36.0447 40.5109 36.0368 40.7151 35.9886 40.9116C35.9405 41.1081 35.8531 41.2928 35.7318 41.4546C35.6104 41.6165 35.4575 41.7521 35.2824 41.8534C35.1072 41.9546 34.9134 42.0194 34.7126 42.0438C34.5117 42.0682 34.3081 42.0517 34.1138 41.9953C33.9195 41.9389 33.7386 41.8439 33.582 41.7158C33.4254 41.5877 33.2964 41.4293 33.2026 41.25C32.2577 39.65 30.9119 38.324 29.2981 37.4029C27.6843 36.4817 25.8583 35.9973 24.0001 35.9973C22.1419 35.9973 20.3158 36.4817 18.702 37.4029C17.0882 38.324 15.7425 39.65 14.7976 41.25C14.7038 41.4293 14.5747 41.5877 14.4182 41.7158C14.2616 41.8439 14.0807 41.9389 13.8864 41.9953C13.6921 42.0517 13.4884 42.0682 13.2876 42.0438C13.0868 42.0194 12.8929 41.9546 12.7178 41.8534C12.5426 41.7521 12.3898 41.6165 12.2684 41.4546C12.147 41.2928 12.0597 41.1081 12.0115 40.9116C11.9634 40.7151 11.9555 40.5109 11.9883 40.3113C12.0212 40.1116 12.094 39.9207 12.2026 39.75C13.6568 37.2513 15.8742 35.285 18.5288 34.14C17.0351 32.9963 15.9373 31.4133 15.3897 29.6134C14.8422 27.8136 14.8724 25.8874 15.4762 24.1056C16.0799 22.3238 17.2269 20.776 18.7558 19.6798C20.2848 18.5835 22.1188 17.994 24.0001 17.994C25.8814 17.994 27.7154 18.5835 29.2443 19.6798C30.7732 20.776 31.9202 22.3238 32.524 24.1056C33.1278 25.8874 33.158 27.8136 32.6105 29.6134C32.0629 31.4133 30.9651 32.9963 29.4713 34.14C32.126 35.285 34.3433 37.2513 35.7976 39.75ZM24.0001 33C25.1868 33 26.3468 32.6481 27.3335 31.9888C28.3202 31.3295 29.0892 30.3925 29.5434 29.2961C29.9975 28.1997 30.1163 26.9933 29.8848 25.8295C29.6533 24.6656 29.0818 23.5965 28.2427 22.7574C27.4036 21.9182 26.3345 21.3468 25.1706 21.1153C24.0067 20.8838 22.8003 21.0026 21.704 21.4567C20.6076 21.9108 19.6706 22.6799 19.0113 23.6666C18.352 24.6533 18.0001 25.8133 18.0001 27C18.0001 28.5913 18.6322 30.1174 19.7574 31.2426C20.8827 32.3679 22.4088 33 24.0001 33ZM13.5001 22.5C13.5001 22.1022 13.342 21.7206 13.0607 21.4393C12.7794 21.158 12.3979 21 12.0001 21C11.1584 20.9999 10.3337 20.7638 9.61952 20.3185C8.90534 19.8732 8.33036 19.2365 7.95989 18.4808C7.58942 17.7251 7.4383 16.8807 7.5237 16.0434C7.60911 15.2061 7.92761 14.4095 8.44303 13.7442C8.95845 13.0788 9.65014 12.5714 10.4395 12.2794C11.2289 11.9875 12.0843 11.9227 12.9086 12.0926C13.733 12.2624 14.4931 12.6601 15.1028 13.2403C15.7124 13.8205 16.1472 14.5601 16.3576 15.375C16.457 15.7604 16.7055 16.0905 17.0484 16.2927C17.3912 16.4949 17.8003 16.5526 18.1857 16.4531C18.5711 16.3537 18.9012 16.1052 19.1034 15.7623C19.3056 15.4195 19.3633 15.0104 19.2638 14.625C18.9718 13.495 18.42 12.4487 17.6525 11.5694C16.8849 10.6901 15.9227 10.0021 14.8425 9.56016C13.7622 9.11818 12.5938 8.93442 11.43 9.02349C10.2662 9.11257 9.13933 9.47203 8.13894 10.0733C7.13855 10.6745 6.29229 11.5009 5.66749 12.4868C5.0427 13.4726 4.65661 14.5907 4.53996 15.752C4.42331 16.9133 4.5793 18.0859 4.99554 19.1763C5.41177 20.2667 6.07676 21.2449 6.93758 22.0331C4.89999 22.9171 3.12892 24.3184 1.80008 26.0981C1.56114 26.4164 1.45841 26.8165 1.51449 27.2105C1.57058 27.6045 1.78088 27.9601 2.09914 28.1991C2.4174 28.438 2.81755 28.5407 3.21155 28.4846C3.60555 28.4286 3.96114 28.2183 4.20008 27.9C5.10418 26.6847 6.28098 25.6987 7.63575 25.0213C8.99052 24.344 10.4854 23.9941 12.0001 24C12.3979 24 12.7794 23.842 13.0607 23.5607C13.342 23.2794 13.5001 22.8978 13.5001 22.5Z" fill="#2C3930"/>
</svg>
