<svg width="62" height="62" viewBox="0 0 62 62" fill="none" xmlns="http://www.w3.org/2000/svg">
<circle cx="31" cy="31" r="29.5" fill="#2C3930" stroke="#A27B5C" stroke-width="3"/>
<path d="M14.2032 44.5001C13.1722 44.5001 12.4135 44.2357 11.9271 43.707C11.4602 43.1978 11.2268 42.5516 11.2268 41.7682V40.1526C11.2268 39.6434 11.2754 39.193 11.3727 38.8013C11.4699 38.4096 11.5964 38.0669 11.752 37.7731C11.9271 37.4598 12.1119 37.1856 12.3065 36.9506C12.501 36.7156 12.6858 36.4904 12.8609 36.275C13.1916 35.8833 13.4153 35.5504 13.5321 35.2762C13.6682 34.9825 13.7363 34.6789 13.7363 34.3656C13.7363 33.0927 12.5205 32.4562 10.0887 32.4562H7.66669V30.1649H10.0887C12.5205 30.1649 13.7363 29.5284 13.7363 28.2555C13.7363 27.9422 13.6682 27.6484 13.5321 27.3742C13.4153 27.0805 13.1916 26.7378 12.8609 26.3461C12.6858 26.1307 12.501 25.9055 12.3065 25.6705C12.1119 25.4159 11.9368 25.1417 11.7812 24.8479C11.6256 24.5542 11.4894 24.2115 11.3727 23.8198C11.2754 23.4281 11.2268 22.9777 11.2268 22.4685V20.8529C11.2268 20.0695 11.4602 19.4233 11.9271 18.9141C12.4135 18.3853 13.1722 18.121 14.2032 18.121H19.3391V20.4123H13.853V22.2923C13.853 22.684 13.8822 23.0267 13.9406 23.3204C13.999 23.5946 14.0768 23.8492 14.174 24.0842C14.2908 24.3192 14.4172 24.5346 14.5534 24.7304C14.709 24.9263 14.8647 25.1221 15.0203 25.318C15.351 25.7292 15.6623 26.1698 15.9541 26.6398C16.2459 27.1099 16.3918 27.6582 16.3918 28.2849C16.3918 29.1074 16.1 29.7732 15.5164 30.2824C14.9522 30.772 14.1449 31.0853 13.0943 31.2224V31.3987C14.1449 31.5358 14.9522 31.8589 15.5164 32.3681C16.1 32.8577 16.3918 33.5137 16.3918 34.3362C16.3918 34.9629 16.2459 35.5112 15.9541 35.9812C15.6623 36.4513 15.351 36.8919 15.0203 37.3031C14.8647 37.499 14.709 37.6948 14.5534 37.8906C14.4172 38.0865 14.2908 38.3019 14.174 38.5369C14.0768 38.7719 13.999 39.0363 13.9406 39.33C13.8822 39.6042 13.853 39.9371 13.853 40.3288V42.2088H19.3391V44.5001H14.2032Z" fill="#A27B5C"/>
<path d="M47.7968 18.121C48.8279 18.121 49.5769 18.3853 50.0438 18.9141C50.5301 19.4233 50.7733 20.0695 50.7733 20.8529V22.4685C50.7733 22.9777 50.7149 23.4281 50.5982 23.8198C50.5009 24.2115 50.3745 24.5542 50.2189 24.8479C50.0632 25.1417 49.8881 25.4159 49.6936 25.6705C49.4991 25.9055 49.3142 26.1307 49.1392 26.3461C48.8084 26.7378 48.575 27.0805 48.4388 27.3742C48.3221 27.6484 48.2637 27.9422 48.2637 28.2555C48.2637 29.5284 49.4796 30.1649 51.9114 30.1649H54.3334V32.4562H51.9114C49.4796 32.4562 48.2637 33.0927 48.2637 34.3656C48.2637 34.6789 48.3221 34.9825 48.4388 35.2762C48.575 35.5504 48.8084 35.8833 49.1392 36.275C49.3142 36.51 49.4991 36.745 49.6936 36.98C49.8881 37.215 50.0632 37.4892 50.2189 37.8025C50.3939 38.0963 50.5301 38.439 50.6274 38.8307C50.7247 39.2028 50.7733 39.6434 50.7733 40.1526V41.7682C50.7733 42.5516 50.5301 43.1978 50.0438 43.707C49.5769 44.2357 48.8279 44.5001 47.7968 44.5001H42.661V42.2088H48.147V40.3288C48.147 39.5455 48.0303 38.9482 47.7968 38.5369C47.5634 38.1061 47.291 37.6948 46.9798 37.3031C46.6491 36.8919 46.3378 36.4513 46.046 35.9812C45.7542 35.5112 45.6083 34.9629 45.6083 34.3362C45.6083 33.5137 45.8904 32.8577 46.4545 32.3681C47.0381 31.8589 47.8552 31.5358 48.9057 31.3987V31.2224C47.8552 31.0853 47.0381 30.772 46.4545 30.2824C45.8904 29.7732 45.6083 29.1074 45.6083 28.2849C45.6083 27.6582 45.7542 27.1099 46.046 26.6398C46.3378 26.1698 46.6491 25.7292 46.9798 25.318C47.291 24.9263 47.5634 24.5248 47.7968 24.1136C48.0303 23.6827 48.147 23.0756 48.147 22.2923V20.4123H42.661V18.121H45.0564H47.7968Z" fill="#A27B5C"/>
<path d="M44.0358 48.0643C44.0358 49.1023 43.7732 49.866 43.248 50.3556C42.7422 50.8256 42.1002 51.0606 41.322 51.0606H39.7171C39.2113 51.0606 38.7638 51.0117 38.3747 50.9138C37.9857 50.8158 37.6452 50.6885 37.3534 50.5319C37.0422 50.3556 36.7698 50.1696 36.5363 49.9738C36.3029 49.7779 36.0792 49.5919 35.8652 49.4156C35.4761 49.0827 35.1454 48.8575 34.873 48.74C34.5812 48.6029 34.2797 48.5343 33.9684 48.5343C32.7039 48.5344 32.0717 49.7583 32.0717 52.2063V54.6444H29.7956V52.2063C29.7956 49.7583 29.1633 48.5343 27.8988 48.5343C27.5875 48.5343 27.2957 48.6029 27.0234 48.74C26.7316 48.8575 26.3911 49.0827 26.002 49.4156C25.788 49.5919 25.5643 49.7779 25.3309 49.9738C25.078 50.1696 24.8056 50.3458 24.5138 50.5025C24.222 50.6592 23.8816 50.7963 23.4925 50.9138C23.1034 51.0117 22.656 51.0606 22.1502 51.0606H20.5452C19.767 51.0606 19.1251 50.8256 18.6193 50.3556C18.094 49.866 17.8314 49.1023 17.8314 48.0643V42.8943H20.1075V48.4169H21.9751C22.3641 48.4169 22.7046 48.3875 22.9964 48.3287C23.2688 48.27 23.5217 48.1916 23.7551 48.0937C23.9886 47.9762 24.2025 47.8489 24.3971 47.7118C24.5916 47.5552 24.7862 47.3985 24.9807 47.2418C25.3892 46.9089 25.827 46.5956 26.2938 46.3018C26.7607 46.0081 27.3055 45.8612 27.928 45.8612C28.745 45.8612 29.4065 46.1549 29.9123 46.7424C30.3986 47.3104 30.7099 48.1231 30.8461 49.1806H31.0212C31.1573 48.1231 31.4783 47.3104 31.9841 46.7424C32.4705 46.1549 33.1222 45.8612 33.9392 45.8612C34.5618 45.8612 35.1065 46.0081 35.5734 46.3018C36.0403 46.5956 36.478 46.9089 36.8865 47.2418C37.0811 47.3985 37.2756 47.5552 37.4701 47.7118C37.6647 47.8489 37.8787 47.9762 38.1121 48.0937C38.3456 48.1916 38.6082 48.27 38.9 48.3287C39.1724 48.3875 39.5031 48.4169 39.8922 48.4169H41.7597V42.8943H44.0358V48.0643Z" fill="#A27B5C"/>
<path d="M17.8314 14.2468C17.8314 13.2088 18.094 12.4549 18.6193 11.9849C19.1251 11.4953 19.767 11.2505 20.5452 11.2505L22.1502 11.2505C22.656 11.2505 23.1034 11.3092 23.4925 11.4267C23.8816 11.5246 24.222 11.6519 24.5138 11.8086C24.8056 11.9653 25.078 12.1415 25.3309 12.3374C25.5643 12.5332 25.788 12.7192 26.002 12.8955C26.3911 13.2284 26.7316 13.4634 27.0234 13.6005C27.2957 13.718 27.5875 13.7768 27.8988 13.7768C29.1633 13.7768 29.7956 12.5528 29.7956 10.1048V7.66667L32.0717 7.66667V10.1048C32.0717 12.5528 32.7039 13.7768 33.9684 13.7768C34.2797 13.7768 34.5812 13.718 34.873 13.6005C35.1454 13.4634 35.4761 13.2284 35.8652 12.8955C36.0986 12.7192 36.3321 12.5332 36.5655 12.3374C36.799 12.1415 37.0713 11.9653 37.3826 11.8086C37.6744 11.6324 38.0148 11.4953 38.4039 11.3973C38.7736 11.2994 39.2113 11.2505 39.7171 11.2505H41.322C42.1002 11.2505 42.7422 11.4953 43.248 11.9849C43.7732 12.4549 44.0358 13.2088 44.0358 14.2468C44.0358 14.7256 44.0358 15.1546 44.0358 15.5573C44.0358 16.8526 44.0358 17.8767 44.0358 19.4168H41.7597V18.7007V16.6162V13.8943H39.8922C39.114 13.8943 38.5207 14.0118 38.1121 14.2468C37.6841 14.4818 37.2756 14.7559 36.8865 15.0693C36.478 15.4022 36.0403 15.7155 35.5734 16.0093C35.1065 16.3031 34.5618 16.4499 33.9392 16.4499C33.1222 16.4499 32.4705 16.166 31.9841 15.598C31.4783 15.0105 31.1573 14.188 31.0212 13.1305H30.8461C30.7099 14.188 30.3986 15.0105 29.9123 15.598C29.4065 16.166 28.745 16.4499 27.928 16.4499C27.3054 16.4499 26.7607 16.3031 26.2938 16.0093C25.827 15.7155 25.3892 15.4022 24.9807 15.0693C24.5916 14.7559 24.1928 14.4818 23.7843 14.2468C23.3563 14.0118 22.7532 13.8943 21.9751 13.8943H20.1075V19.4169H17.8314L17.8314 14.2468Z" fill="#A27B5C"/>
<path d="M9.54311 28.1342C8.81404 27.4003 8.46326 26.6733 8.49078 25.9532C8.51829 25.2608 8.80716 24.6377 9.35741 24.0838L10.4923 22.9413C10.8499 22.5813 11.2007 22.2974 11.5446 22.0897C11.8885 21.882 12.2187 21.7296 12.535 21.6327C12.8789 21.5358 13.2022 21.4735 13.5048 21.4458C13.8075 21.4181 14.0964 21.3904 14.3715 21.3627C14.8804 21.3211 15.2725 21.245 15.5476 21.1342C15.8502 21.0234 16.1116 20.8572 16.3317 20.6357C17.2258 19.7356 16.8132 18.42 15.0937 16.6891L13.381 14.965L14.9905 13.3448L16.7031 15.0689C18.4226 16.7998 19.7294 17.2153 20.6236 16.3152C20.8437 16.0936 21.0019 15.8374 21.0982 15.5466C21.222 15.2558 21.3045 14.8542 21.3458 14.3419C21.3733 14.0649 21.4008 13.7741 21.4283 13.4695C21.4696 13.151 21.5384 12.8325 21.6347 12.514C21.7309 12.1955 21.8754 11.8562 22.068 11.4962C22.2743 11.15 22.5563 10.7969 22.914 10.4368L24.0488 9.29438C24.5991 8.74047 25.2181 8.44967 25.9059 8.42198C26.6212 8.39428 27.3434 8.7474 28.0725 9.48133L31.7041 13.1371L30.0946 14.7573L26.2154 10.8523L24.8948 12.1816C24.6197 12.4586 24.3996 12.7217 24.2345 12.971C24.0832 13.2064 23.9594 13.4418 23.8631 13.6772C23.7806 13.9264 23.7187 14.1688 23.6774 14.4042C23.6499 14.6535 23.6224 14.9027 23.5949 15.152C23.5399 15.6782 23.4504 16.2113 23.3266 16.7514C23.2028 17.2914 22.9208 17.783 22.4806 18.2262C21.9029 18.8078 21.2288 19.0709 20.4585 19.0155C19.7157 18.9601 18.9247 18.607 18.0856 17.9561L17.9618 18.0808C18.6083 18.9255 18.9522 19.7286 18.9935 20.4903C19.0623 21.2519 18.8078 21.9235 18.23 22.5051C17.7898 22.9482 17.3015 23.2321 16.765 23.3567C16.2285 23.4814 15.6989 23.5714 15.1762 23.6268C14.9286 23.6545 14.681 23.6822 14.4334 23.7099C14.1995 23.7514 13.9588 23.8137 13.7112 23.8968C13.4773 23.9937 13.2366 24.1253 12.989 24.2915C12.7551 24.4438 12.5007 24.6584 12.2255 24.9354L10.905 26.2648L14.7842 30.1698L13.1747 31.79L9.54311 28.1342Z" fill="#A27B5C"/>
<path d="M51.8267 33.394C52.5558 34.1279 52.8997 34.848 52.8584 35.5542C52.8447 36.2604 52.5627 36.8905 52.0124 37.4444L50.8776 38.5869C50.5199 38.9469 50.1623 39.2239 49.8046 39.4177C49.4607 39.6254 49.1306 39.7778 48.8142 39.8747C48.4978 39.9716 48.1814 40.0409 47.865 40.0824C47.5624 40.1101 47.2735 40.1378 46.9984 40.1655C46.4894 40.207 46.0836 40.2832 45.781 40.394C45.5059 40.5048 45.2582 40.6709 45.0382 40.8925C44.144 41.7926 44.5567 43.1081 46.2762 44.8391L47.9888 46.5631L46.3794 48.1833L44.6667 46.4593C42.9472 44.7283 41.6404 44.3129 40.7463 45.213C40.5262 45.4346 40.3542 45.6907 40.2304 45.9815C40.1341 46.2723 40.0653 46.6739 40.0241 47.1863C39.9828 47.4771 39.9484 47.7748 39.9209 48.0795C39.8934 48.3841 39.8246 48.7026 39.7146 49.035C39.632 49.3673 39.4876 49.7066 39.2813 50.0528C39.0887 50.3851 38.8136 50.7313 38.4559 51.0914L37.321 52.2338C36.7708 52.7877 36.1449 53.0716 35.4433 53.0854C34.7418 53.127 34.0265 52.7808 33.2974 52.0468L29.6658 48.391L31.2753 46.7709L35.1545 50.6759L36.475 49.3465C37.0253 48.7926 37.3623 48.2872 37.4861 47.8302C37.6237 47.3594 37.7199 46.8747 37.775 46.3762C37.83 45.85 37.9194 45.3168 38.0432 44.7768C38.167 44.2367 38.449 43.7451 38.8892 43.302C39.467 42.7204 40.1273 42.4573 40.8701 42.5127C41.6404 42.5681 42.4451 42.9212 43.2843 43.572L43.4081 43.4474C42.7615 42.6027 42.4039 41.7995 42.3351 41.0379C42.2938 40.2763 42.5621 39.6047 43.1398 39.0231C43.58 38.5799 44.0683 38.2961 44.6048 38.1714C45.1413 38.0468 45.6709 37.9568 46.1937 37.9014C46.6889 37.846 47.1635 37.756 47.6174 37.6314C48.0851 37.4929 48.5941 37.1467 49.1443 36.5928L50.4649 35.2634L46.5857 31.3583L48.1952 29.7382L51.8267 33.394Z" fill="#A27B5C"/>
<path d="M28.1344 51.89C27.4053 52.6239 26.6831 52.977 25.9678 52.9493C25.28 52.9216 24.661 52.6308 24.1107 52.0769L22.9759 50.9345C22.6182 50.5744 22.3362 50.2213 22.1299 49.8751C21.9235 49.5289 21.7722 49.1966 21.6759 48.8781C21.5796 48.5319 21.5177 48.2065 21.4902 47.9018C21.4627 47.5972 21.4352 47.3064 21.4077 47.0294C21.3664 46.5171 21.2908 46.1224 21.1807 45.8454C21.0707 45.5408 20.9056 45.2777 20.6855 45.0561C19.7913 44.156 18.4845 44.5715 16.765 46.3024L15.0524 48.0265L13.4429 46.4063L15.1556 44.6822C16.8751 42.9513 17.2878 41.6357 16.3936 40.7356C16.1735 40.5141 15.919 40.3548 15.6302 40.2579C15.3413 40.1333 14.9423 40.0502 14.4334 40.0086C14.1583 39.9809 13.8694 39.9532 13.5667 39.9255C13.2504 39.884 12.934 39.8148 12.6176 39.7178C12.3012 39.6209 11.9642 39.4755 11.6065 39.2816C11.2626 39.0739 10.9118 38.79 10.5542 38.43L9.41931 37.2875C8.86907 36.7336 8.58019 36.1105 8.55268 35.4181C8.52517 34.698 8.87595 33.971 9.60501 33.2371L13.2366 29.5813L14.8461 31.2015L10.9669 35.1065L12.2874 36.4359C12.5626 36.7129 12.8239 36.9344 13.0715 37.1006C13.3054 37.2529 13.5392 37.3776 13.7731 37.4745C14.0207 37.5576 14.2614 37.6199 14.4953 37.6614C14.7429 37.6891 14.9905 37.7168 15.2381 37.7445C15.7608 37.7999 16.2904 37.8899 16.8269 38.0146C17.3634 38.1392 17.8517 38.4231 18.2919 38.8662C18.8697 39.4478 19.1311 40.1263 19.076 40.9018C19.021 41.6496 18.6702 42.4458 18.0237 43.2905L18.1475 43.4152C18.9866 42.7643 19.7845 42.4181 20.541 42.3766C21.2976 42.3074 21.9648 42.5635 22.5426 43.1451C22.9827 43.5883 23.2647 44.0799 23.3885 44.6199C23.5123 45.16 23.6018 45.6931 23.6568 46.2193C23.6843 46.4686 23.7118 46.7178 23.7393 46.9671C23.7806 47.2025 23.8425 47.4449 23.925 47.6941C24.0213 47.9295 24.152 48.1719 24.3171 48.4211C24.4684 48.6565 24.6816 48.9127 24.9567 49.1897L26.2773 50.5191L30.1565 46.614L31.766 48.2342L28.1344 51.89Z" fill="#A27B5C"/>
<path d="M33.3593 9.32446C34.0884 8.59053 34.8037 8.24433 35.5052 8.28588C36.2068 8.29972 36.8327 8.5836 37.3829 9.13751L38.5178 10.2799C38.8755 10.64 39.1506 11 39.3432 11.3601C39.5495 11.7063 39.7008 12.0386 39.7971 12.3571C39.8934 12.6756 39.9622 12.9941 40.0034 13.3126C40.031 13.6172 40.0585 13.9081 40.086 14.185C40.1273 14.6974 40.2029 15.1059 40.313 15.4105C40.423 15.6875 40.5881 15.9367 40.8082 16.1583C41.0856 16.4376 41.4028 16.5902 41.7597 16.6162C42.3933 16.6623 43.152 16.3093 44.0358 15.5573C44.2588 15.3676 44.4897 15.1525 44.7286 14.912L46.4413 13.188L48.0507 14.8082L46.3381 16.5322C45.7664 17.1077 45.3391 17.6373 45.0564 18.121C44.4886 19.092 44.5032 19.878 45.1001 20.4788C45.3201 20.7004 45.5746 20.8735 45.8635 20.9981C46.1524 21.095 46.5513 21.1643 47.0603 21.2058C47.3492 21.2473 47.6449 21.282 47.9475 21.3097C48.2502 21.3374 48.5666 21.4066 48.8967 21.5174C49.2269 21.6005 49.5639 21.7459 49.9078 21.9536C50.2379 22.1474 50.5818 22.4244 50.9395 22.7844L52.0744 23.9269C52.6246 24.4808 52.9066 25.1109 52.9203 25.8171C52.9616 26.5233 52.6177 27.2434 51.8886 27.9773L48.2571 31.6331L46.6476 30.013L50.5268 26.1079L49.2062 24.7785C48.656 24.2246 48.1539 23.8853 47.6999 23.7607C47.2322 23.6222 46.7508 23.5253 46.2556 23.4699C45.7328 23.4145 45.2032 23.3245 44.6667 23.1999C44.1303 23.0752 43.6419 22.7914 43.2017 22.3482C42.624 21.7666 42.3626 21.1019 42.4176 20.3542C42.4726 19.5787 42.8234 18.7686 43.47 17.9239L43.3462 17.7993C42.7999 18.223 42.271 18.5235 41.7597 18.7007C41.4857 18.7956 41.2166 18.8552 40.9526 18.8794C40.196 18.9209 39.5289 18.6509 38.9511 18.0693C38.5109 17.6262 38.2289 17.1346 38.1051 16.5945C37.9813 16.0544 37.8919 15.5213 37.8369 14.9951C37.7818 14.4966 37.6924 14.0188 37.5686 13.5619C37.4311 13.091 37.0872 12.5787 36.5369 12.0248L35.2164 10.6954L31.3372 14.6004L29.7277 12.9803L33.3593 9.32446Z" fill="#A27B5C"/>
</svg>
