<svg width="48" height="48" viewBox="0 0 48 48" fill="none" xmlns="http://www.w3.org/2000/svg">
<path d="M41.972 8.83502C41.9275 8.10363 41.617 7.4138 41.0988 6.89567C40.5807 6.37755 39.8909 6.06697 39.1595 6.02252C36.8007 5.88189 30.7726 6.09752 25.7701 11.0981L24.8795 12H13.9426C13.5471 11.9978 13.1552 12.0742 12.7895 12.2249C12.4238 12.3755 12.0918 12.5974 11.8126 12.8775L5.38135 19.3125C4.98694 19.7067 4.71018 20.2029 4.58213 20.7456C4.45408 21.2883 4.47981 21.8559 4.65643 22.3848C4.83305 22.9137 5.15356 23.3829 5.58201 23.7397C6.01046 24.0966 6.52988 24.327 7.08198 24.405L14.2951 25.4119L22.5845 33.7013L23.5914 40.9181C23.6688 41.4703 23.8991 41.9897 24.2563 42.4178C24.6135 42.8459 25.0833 43.1656 25.6126 43.3406C25.9209 43.4436 26.2438 43.4962 26.5689 43.4963C26.9624 43.497 27.3523 43.4199 27.7159 43.2693C28.0796 43.1186 28.4098 42.8976 28.6876 42.6188L35.1226 36.1875C35.4028 35.9084 35.6246 35.5763 35.7753 35.2106C35.9259 34.845 36.0023 34.453 36.0001 34.0575V23.1206L36.8945 22.2263C41.897 17.2238 42.1126 11.1956 41.972 8.83502ZM13.9426 15H21.8795L14.4676 22.41L7.5001 21.4388L13.9426 15ZM27.8945 13.2281C29.3358 11.7779 31.0701 10.6519 32.9813 9.92537C34.8926 9.19883 36.9368 8.88847 38.9776 9.01502C39.1091 11.0569 38.8019 13.1032 38.0768 15.0165C37.3518 16.9297 36.2255 18.6656 34.7739 20.1075L24.0001 30.8775L17.1226 24L27.8945 13.2281ZM33.0001 34.0575L26.5632 40.5L25.5901 33.5306L33.0001 26.1206V34.0575ZM19.0951 35.8388C18.2514 37.6875 15.4295 42 7.5001 42C7.10228 42 6.72075 41.842 6.43945 41.5607C6.15814 41.2794 6.0001 40.8978 6.0001 40.5C6.0001 32.5706 10.3126 29.7488 12.1614 28.9031C12.3406 28.8214 12.5342 28.7758 12.7311 28.7688C12.928 28.7619 13.1243 28.7938 13.3089 28.8628C13.4934 28.9317 13.6626 29.0363 13.8067 29.1707C13.9509 29.305 14.0671 29.4664 14.1489 29.6456C14.2306 29.8249 14.2762 30.0185 14.2832 30.2154C14.2901 30.4123 14.2582 30.6086 14.1892 30.7932C14.1203 30.9777 14.0157 31.1469 13.8813 31.291C13.747 31.4351 13.5856 31.5514 13.4064 31.6331C12.2007 32.1825 9.54011 33.9506 9.07136 38.9288C14.0495 38.46 15.8214 35.7994 16.367 34.5938C16.4487 34.4145 16.565 34.2531 16.7091 34.1188C16.8532 33.9845 17.0224 33.8798 17.207 33.8109C17.3915 33.7419 17.5878 33.71 17.7847 33.717C17.9816 33.7239 18.1752 33.7695 18.3545 33.8513C18.5337 33.933 18.6951 34.0493 18.8295 34.1934C18.9638 34.3375 19.0684 34.5067 19.1374 34.6912C19.2063 34.8758 19.2382 35.0721 19.2313 35.269C19.2244 35.4659 19.1787 35.6595 19.097 35.8388H19.0951Z" fill="#2C3930"/>
</svg>
