<svg width="63" height="48" viewBox="0 0 63 48" fill="none" xmlns="http://www.w3.org/2000/svg">
<path d="M17.7188 19.5C17.7188 19.1022 17.9262 18.7206 18.2954 18.4393C18.6646 18.158 19.1654 18 19.6875 18H43.3125C43.8346 18 44.3354 18.158 44.7046 18.4393C45.0738 18.7206 45.2812 19.1022 45.2812 19.5C45.2812 19.8978 45.0738 20.2794 44.7046 20.5607C44.3354 20.842 43.8346 21 43.3125 21H19.6875C19.1654 21 18.6646 20.842 18.2954 20.5607C17.9262 20.2794 17.7188 19.8978 17.7188 19.5ZM19.6875 27H43.3125C43.8346 27 44.3354 26.842 44.7046 26.5607C45.0738 26.2794 45.2812 25.8978 45.2812 25.5C45.2812 25.1022 45.0738 24.7206 44.7046 24.4393C44.3354 24.158 43.8346 24 43.3125 24H19.6875C19.1654 24 18.6646 24.158 18.2954 24.4393C17.9262 24.7206 17.7188 25.1022 17.7188 25.5C17.7188 25.8978 17.9262 26.2794 18.2954 26.5607C18.6646 26.842 19.1654 27 19.6875 27ZM57.0938 10.5V39C57.0936 39.2557 57.0076 39.507 56.8441 39.7303C56.6805 39.9535 56.4448 40.1412 56.1593 40.2755C55.8738 40.4098 55.548 40.4863 55.2128 40.4977C54.8775 40.5091 54.5441 40.455 54.244 40.3406L47.25 37.6763L40.256 40.3406C39.9825 40.4449 39.6809 40.4992 39.375 40.4992C39.0691 40.4992 38.7675 40.4449 38.494 40.3406L31.5 37.6763L24.506 40.3406C24.2325 40.4449 23.9309 40.4992 23.625 40.4992C23.3191 40.4992 23.0175 40.4449 22.744 40.3406L15.75 37.6763L8.75602 40.3406C8.45594 40.455 8.12246 40.5091 7.78724 40.4977C7.45203 40.4863 7.12619 40.4098 6.84068 40.2755C6.55517 40.1412 6.31945 39.9535 6.15591 39.7303C5.99237 39.507 5.90643 39.2557 5.90625 39V10.5C5.90625 9.70435 6.32109 8.94129 7.05952 8.37868C7.79794 7.81607 8.79946 7.5 9.84375 7.5H53.1562C54.2005 7.5 55.2021 7.81607 55.9405 8.37868C56.6789 8.94129 57.0938 9.70435 57.0938 10.5ZM53.1562 10.5H9.84375V36.5737L14.869 34.6575C15.1425 34.5532 15.4441 34.4989 15.75 34.4989C16.0559 34.4989 16.3575 34.5532 16.631 34.6575L23.625 37.3237L30.619 34.6575C30.8925 34.5532 31.1941 34.4989 31.5 34.4989C31.8059 34.4989 32.1075 34.5532 32.381 34.6575L39.375 37.3237L46.369 34.6575C46.6425 34.5532 46.9441 34.4989 47.25 34.4989C47.5559 34.4989 47.8575 34.5532 48.131 34.6575L53.1562 36.5737V10.5Z" fill="#2C3930"/>
</svg>
